<svg width="25" height="24" viewBox="0 0 25 24" fill="none" xmlns="http://www.w3.org/2000/svg">
<g clip-path="url(#clip0_2_49)">
<path d="M19.4159 1.5H6.05595C3.94622 1.5 2.23595 3.21027 2.23595 5.32V18.68C2.23595 20.7897 3.94622 22.5 6.05595 22.5H19.4159C21.5257 22.5 23.2359 20.7897 23.2359 18.68V5.32C23.2359 3.21027 21.5257 1.5 19.4159 1.5Z" stroke="#C52AA3" stroke-width="2" stroke-miterlimit="10"/>
<path d="M12.7359 16.77C15.3703 16.77 17.506 14.6344 17.506 12C17.506 9.3656 15.3703 7.23 12.7359 7.23C10.1016 7.23 7.96595 9.3656 7.96595 12C7.96595 14.6344 10.1016 16.77 12.7359 16.77Z" stroke="#C52AA3" stroke-width="2" stroke-miterlimit="10"/>
<path d="M18.9359 7.23C19.7257 7.23 20.3659 6.58976 20.3659 5.8C20.3659 5.01023 19.7257 4.37 18.9359 4.37C18.1462 4.37 17.5059 5.01023 17.5059 5.8C17.5059 6.58976 18.1462 7.23 18.9359 7.23Z" fill="#C52AA3"/>
</g>
<defs>
<clipPath id="clip0_2_49">
<rect width="24" height="24" fill="white" transform="translate(0.735947)"/>
</clipPath>
</defs>
</svg>
